<?xml version="1.0" encoding="UTF-8"?> <svg xmlns="http://www.w3.org/2000/svg" id="Layer_1" data-name="Layer 1" version="1.1" viewBox="0 0 1545 551.1"><defs><style> .cls-1 { fill: #0092d5; } .cls-1, .cls-2 { stroke-width: 0px; } .cls-2 { fill: #fff; } </style></defs><path class="cls-1" d="M357.7,228.6l-32.5-29.6-20.2-19.9c18.5-9.6,38.9-26.2,38.9-49.4s-23.9-50.7-62-50.7-65.4,21.8-65.4,51.8,5.4,26.8,18.6,41.7c-22.6,11.6-37.5,28.2-37.5,51.3s.4,7.3,1.2,10.8c3.7,16.5,16,29.6,34.1,37.2,11.2,4.7,24.5,7.4,39.4,7.4,25.2,0,43.5-6.6,57.6-15.7l13.3,12.9h62.9l-48.4-47.7ZM281.4,119.8c7.9,0,14,4.9,14,12.9s-5.6,11.7-19.2,18.2c-8.2-8.4-10.2-11.6-10.2-17.2,0-8.7,6.9-13.9,15.3-13.9ZM277,236.7c-2.3,0-4.4-.1-6.4-.4-4.1-.5-7.7-1.4-10.7-2.7-1.5-.7-2.9-1.4-4.2-2.2-5-3.3-7.8-8-7.8-13.4s.8-5.1,2.3-7.7c.5-.9,1.1-1.7,1.7-2.5,2.6-3.3,6.4-6.1,11-7.8l33.1,32.4c-6.2,3.1-12.6,4.4-18.9,4.4Z"></path><path class="cls-1" d="M190.7,243c-1-2.6-1.9-5.3-2.4-8.2h-98.7v-61.7h92.4v-42h-92.4v-56.2h108.9v-42H41.1v243.7h178.5c-14-8.1-24.1-19.7-28.9-33.6Z"></path><polygon class="cls-1" points="536 234.8 424.4 234.8 424.4 173 516.8 173 516.8 131.1 424.4 131.1 424.4 74.9 533.3 74.9 533.3 32.9 375.9 32.9 375.9 231.9 421.3 276.6 536 276.6 536 234.8"></polygon><path class="cls-2" d="M600.4,33.6l171.6,212.7V33.6h21.4v242.7h-23.9l-171.7-213.2v213.2h-21.4V33.6h24.1Z"></path><path class="cls-2" d="M824.1,33.6h158.3v19.3h-136.9v87.9h118.1v19.5h-118.1v96.7h140.8v19.3h-162.3V33.6Z"></path><path class="cls-2" d="M1009.6,34.3h22.6l66.8,215.3,72.4-215.3h22.8l72.4,215.3,66.8-215.3h22.6l-75.8,242.1h-25.8l-71.7-215-71.7,215h-25.8l-75.8-242.1Z"></path><path class="cls-2" d="M1371.6,216.2c17.4,27.2,45.3,41.3,75.6,41.3s59.1-15.9,59.1-42.3-20.6-37.5-66-52.8c-50.7-17.1-76.5-33.8-76.5-67.3s39.9-62,76.7-62,67.4,20,80.7,41.3l-16.2,11.9c-14.1-22.5-36.9-33.8-64.5-33.8s-55.6,14.8-55.6,42.4,19.7,34.7,61.7,48.3c60.6,19.7,80.9,38,80.9,71.8s-38.3,61.9-80.2,61.9-74.4-18.5-91.1-48.6l15.5-11.9Z"></path><g><path class="cls-2" d="M830.7,476.9c-12.7,0-24.2-4.8-33.9-14.2-9.8-9.4-14.8-21.5-14.8-36.1s4.8-25.7,14.3-35.2c9.5-9.6,21.2-14.4,34.9-14.4s23,3.9,31.8,11.6c3.1-6,7.1-11.7,11.8-17-12.5-10-27-15.1-43.3-15.1s-36.4,6.9-50.3,20.6c-14,13.7-21,30.3-21,49.3s7.8,39.4,23.1,52.8c13.9,12.1,29.8,18.2,47.2,18.2s31.5-5,44.1-14.8c-4.7-5.3-8.6-11-11.7-17.2-8.9,7.7-19.7,11.5-32.1,11.5Z"></path><path class="cls-2" d="M407.9,498.1c-17.6,0-33.7-6.2-47.7-18.4-15.5-13.5-23.3-31.5-23.3-53.3s7.1-36,21.2-49.8c14.1-13.8,31.2-20.8,50.8-20.8s36.4,7.1,50.3,21c14,13.9,21.1,30.9,21.1,50.4s-7.1,36.5-21.2,50.2c-14.1,13.7-31.4,20.7-51.3,20.7ZM408.7,376.5c-13.9,0-25.7,4.9-35.3,14.6-9.6,9.5-14.4,21.5-14.4,35.5s5,27,14.9,36.5c9.9,9.5,21.4,14.3,34.3,14.3s26-4.9,35.6-14.6c9.6-9.8,14.5-21.9,14.5-35.9s-4.8-26.3-14.3-35.9c-9.4-9.7-21.3-14.6-35.2-14.6Z"></path><path class="cls-2" d="M566.1,497.9h-73.1v-142.3h22.7v120.9h50.4v21.5Z"></path><path class="cls-2" d="M600.9,497.9h-22.7v-142.3h22.7v142.3Z"></path><path class="cls-2" d="M675,497.9h-22.7v-120.9h-39v-21.5h101.7v21.5h-39.9v120.9Z"></path><path class="cls-2" d="M749.6,497.9h-22.7v-142.3h22.7v142.3Z"></path><path class="cls-2" d="M937.6,498.1c-17.6,0-33.7-6.2-47.7-18.4-15.5-13.5-23.3-31.5-23.3-53.3s7.1-36,21.2-49.8c14.1-13.8,31.2-20.8,50.8-20.8s36.4,7.1,50.3,21c14,13.9,21.1,30.9,21.1,50.4s-7.1,36.5-21.2,50.2c-14.1,13.7-31.3,20.7-51.3,20.7ZM938.4,376.5c-13.9,0-25.7,4.9-35.3,14.6-9.6,9.5-14.4,21.5-14.4,35.5s5,27,14.9,36.5c9.9,9.5,21.4,14.3,34.3,14.3s26-4.9,35.6-14.6c9.6-9.8,14.5-21.9,14.5-35.9s-4.8-26.3-14.3-35.9c-9.5-9.7-21.3-14.6-35.2-14.6Z"></path><path class="cls-2" d="M249.1,497.9h-22.7v-142.2h22.7s32.9,0,32.9,0c26.2,0,47.6,21.3,47.6,47.6s-21.3,47.6-47.6,47.6h-32.9v47ZM249.1,430h32.9c14.7,0,26.7-12,26.7-26.7s-12-26.7-26.7-26.7h-32.9v53.5Z"></path></g><g><path class="cls-2" d="M44.3,497.9v-91.8h39.6c17.4,0,28,11.7,28,25.7s-3.8,14.9-10.1,18.5c8.6,3.7,13.5,12,13.5,21,0,14.9-12.1,26.6-28.7,26.6h-42.3ZM83.9,445.2c8.5,0,13.7-6.2,13.7-13.1s-4.8-13.4-13.7-13.4h-25.4v26.4h25.4ZM58.5,485.2h28.1c9,0,14.7-6.6,14.7-14.1s-6-13.9-14.7-13.9h-28.1v28.1Z"></path><path class="cls-2" d="M121.2,433h14.7l20.2,51.1,20.1-51.1h14.7l-31.1,73.2c-5.2,12-10.8,20.2-26.6,20.2s-9.6-1.8-10.8-2.4l1.4-11.1c1.8.8,5.3,1.7,8.7,1.7,8.7,0,12.2-4.4,15.1-12l1.4-3.7-28-65.9Z"></path></g></svg> 